HIERARCHY
ROOT Hips
{
	OFFSET 0.00 0.00 0.00
	CHANNELS 6 Xposition Yposition Zposition Xrotation Yrotation Zrotation
	JOINT LeftUpLeg
	{
		OFFSET 2.94355 0.00000 0.00000
		CHANNELS 3 Xrotation Yrotation Zrotation
		JOINT LeftLeg
		{
			OFFSET 0.00000 -16.73768 0.00000
			CHANNELS 3 Xrotation Yrotation Zrotation
			JOINT LeftFoot
			{
				OFFSET 0.00000 -15.48883 0.00000
				CHANNELS 3 Xrotation Yrotation Zrotation
				JOINT LeftToeBase
				{
					OFFSET 0.00000 -1.60986 6.00809
					CHANNELS 3 Xrotation Yrotation Zrotation
					End Site
					{
						OFFSET 0.00000 0.00000 2.95275
					}
				}
			}
		}
	}
	JOINT RightUpLeg
	{
		OFFSET -2.94355 0.00000 0.00000
		CHANNELS 3 Xrotation Yrotation Zrotation
		JOINT RightLeg
		{
			OFFSET 0.00000 -16.73768 0.00000
			CHANNELS 3 Xrotation Yrotation Zrotation
			JOINT RightFoot
			{
				OFFSET 0.00000 -15.48883 0.00000
				CHANNELS 3 Xrotation Yrotation Zrotation
				JOINT RightToeBase
				{
					OFFSET 0.00000 -1.60986 6.00809
					CHANNELS 3 Xrotation Yrotation Zrotation
					End Site
					{
						OFFSET 0.00000 0.00000 2.95275
					}
				}
			}
		}
	}
	JOINT Spine
	{
		OFFSET 0.00000 0.03937 0.00000
		CHANNELS 3 Xrotation Yrotation Zrotation
		JOINT Spine1
		{
			OFFSET 0.00000 11.10029 0.00000
			CHANNELS 3 Xrotation Yrotation Zrotation
			JOINT Neck
			{
				OFFSET 0.00000 8.89215 0.00000
				CHANNELS 3 Xrotation Yrotation Zrotation
				JOINT Head
				{
					OFFSET 0.00000 5.25932 0.00000
					CHANNELS 3 Xrotation Yrotation Zrotation
					End Site
					{
						OFFSET 0.00000 4.52755 0.00000
					}
				}
			}
			JOINT LeftShoulder
			{
				OFFSET 0.00000 8.89215 0.00000
				CHANNELS 3 Xrotation Yrotation Zrotation
				JOINT LeftArm
				{
					OFFSET 6.13318 -0.00002 0.00000
					CHANNELS 3 Xrotation Yrotation Zrotation
					JOINT LeftForeArm
					{
						OFFSET 10.77766 -0.00004 0.00000
						CHANNELS 3 Xrotation Yrotation Zrotation
						JOINT LeftHand
						{
							OFFSET 9.97045 -0.00004 0.00000
							CHANNELS 3 Xrotation Yrotation Zrotation
							JOINT LeftHandThumb
							{
								OFFSET 0.00000 0.00000 0.00000
								CHANNELS 3 Xrotation Yrotation Zrotation
								End Site
								{
									OFFSET 0.00000 0.00000 3.93700
								}
							}
							JOINT L_Wrist_End
							{
								OFFSET 3.93700 -0.00001 0.00000
								CHANNELS 3 Xrotation Yrotation Zrotation
							}
						}
					}
				}
			}
			JOINT RightShoulder
			{
				OFFSET 0.00000 8.89215 0.00000
				CHANNELS 3 Xrotation Yrotation Zrotation
				JOINT RightArm
				{
					OFFSET -6.13318 -0.00002 0.00000
					CHANNELS 3 Xrotation Yrotation Zrotation
					JOINT RightForeArm
					{
						OFFSET -10.77766 -0.00004 0.00000
						CHANNELS 3 Xrotation Yrotation Zrotation
						JOINT RightHand
						{
							OFFSET -9.97045 -0.00004 0.00000
							CHANNELS 3 Xrotation Yrotation Zrotation
							JOINT RightHandThumb
							{
								OFFSET 0.00000 0.00000 0.00000
								CHANNELS 3 Xrotation Yrotation Zrotation
								End Site
								{
									OFFSET 0.00000 0.00000 3.93700
								}
							}
							JOINT R_Wrist_End
							{
								OFFSET -3.93700 -0.00001 0.00000
								CHANNELS 3 Xrotation Yrotation Zrotation
							}
						}
					}
				}
			}
		}
	}
}
MOTION
Frames: 17
Frame Time: 0.008333
 60.1656 33.4626 -1.0010 70.3347 -73.0819 82.2520 -29.0679 10.7755 -10.9186 29.4183 0.0000 0.0000 -10.2714 10.3034 -39.4235 -12.0966 0.0000 -0.0000 -13.5281 -4.7464 -13.3370 57.8572 -0.0000 0.0000 -2.3448 3.9465 3.7112 -2.8677 -0.0000 -0.0000 -4.1583 -0.5065 -13.1106 -5.0400 4.7603 -2.8402 10.5040 40.2105 -1.6189 6.5789 -42.6781 7.2222 -7.6264 -2.6471 -8.2746 40.0931 -5.6268 -58.2199 -0.0005 -66.5282 -0.0003 -14.8966 17.2638 -10.3716 0.0000 0.0000 -0.0000 0.0000 0.0000 -0.0000 -4.0212 -7.1707 1.7238 27.4582 22.8411 57.4122 -0.0023 84.8790 0.0021 -7.7504 20.0296 -20.2148 0.0000 0.0000 -0.0000 0.0000 0.0000 -0.0000
 59.5459 33.3158 -0.9640 69.9493 -73.1510 81.8395 -28.3461 10.2239 -11.1617 30.1107 0.0000 -0.0000 -11.4628 10.9174 -38.3331 -11.8149 0.0000 -0.0000 -15.4304 -4.2348 -13.5219 62.3048 -0.0000 0.0000 -2.3348 3.3136 3.8400 -2.7520 -0.0000 0.0000 -4.3072 -0.7107 -13.1230 -4.9894 4.5216 -2.9020 10.7206 40.1471 -1.2722 6.0069 -42.5063 6.4902 -7.7067 -2.7428 -8.4146 39.6024 -5.6736 -57.8594 -0.0005 -66.7848 -0.0003 -15.1157 17.4555 -10.7897 0.0000 -0.0000 -0.0000 0.0000 -0.0000 -0.0000 -3.8587 -7.3344 1.7966 27.8813 22.7129 57.4534 -0.0020 83.9563 0.0018 -8.0189 19.7194 -20.4803 0.0000 -0.0000 0.0000 0.0000 -0.0000 0.0000
 58.9109 33.1367 -0.9399 69.2822 -73.4010 81.1783 -27.3728 9.3582 -11.3966 31.0469 -0.0000 0.0000 -14.2507 11.6789 -38.4675 -12.6723 -0.0000 0.0000 -17.0520 -3.7645 -13.6878 66.4311 -0.0000 0.0000 -3.5576 2.5370 2.9990 -2.8373 -0.0000 0.0000 -4.5859 -0.9186 -13.1907 -4.3352 4.2426 -2.9905 10.7292 40.1893 -1.1138 5.5618 -42.3555 6.1831 -7.9179 -2.7693 -8.4784 38.8584 -5.9205 -57.4343 -0.0005 -67.0307 -0.0003 -15.4240 17.5896 -10.7991 -0.0000 0.0000 -0.0000 -0.0000 0.0000 -0.0000 -4.1705 -7.3094 1.9190 28.4195 22.2162 57.6110 -0.0017 83.0254 0.0015 -8.2222 19.5411 -20.0759 0.0000 -0.0000 0.0000 0.0000 -0.0000 0.0000
 58.1980 32.9414 -0.9011 67.9562 -74.8610 79.9092 -24.9046 8.3022 -11.6416 31.6356 0.0000 -0.0000 -16.7899 12.4630 -39.1138 -11.7835 0.0000 -0.0000 -17.1671 -3.3457 -13.8928 69.8465 -0.0000 0.0000 -5.3318 1.8160 2.3431 -2.7786 -0.0000 -0.0000 -3.4627 -1.3362 -13.3349 -4.5923 4.2445 -2.9075 10.8829 40.2850 -0.9103 6.1516 -42.2674 6.4835 -7.9166 -2.8506 -8.6274 38.4966 -6.0452 -57.1177 -0.0005 -67.3059 -0.0003 -15.2991 17.5310 -10.6486 0.0000 -0.0000 -0.0000 0.0000 -0.0000 -0.0000 -3.6267 -7.8025 2.0943 28.9492 22.2723 57.2315 -0.0015 81.9537 0.0013 -8.5657 19.6542 -20.1469 0.0000 0.0000 -0.0000 0.0000 0.0000 -0.0000
 57.6049 32.7407 -0.8729 67.6558 -74.8995 79.5810 -24.5265 7.3135 -11.7557 32.9487 -0.0000 0.0000 -18.8627 13.1467 -39.8566 -11.5842 -0.0000 0.0000 -19.2560 -2.7509 -13.9889 73.5277 -0.0000 0.0000 -7.2623 1.1235 1.0264 -2.7922 -0.0000 -0.0000 -3.4482 -1.5960 -13.3655 -4.7785 4.0048 -2.9657 10.9597 40.2155 -0.5604 5.7595 -42.0794 6.0515 -8.1571 -2.9496 -8.8939 38.0420 -6.0932 -56.5457 -0.0005 -67.7891 -0.0003 -15.5145 17.6414 -10.7300 -0.0000 0.0000 -0.0000 -0.0000 0.0000 -0.0000 -3.4608 -8.0619 2.3798 29.5042 21.9533 56.9484 -0.0013 81.0250 0.0011 -8.4249 19.3155 -19.9534 0.0000 0.0000 0.0000 0.0000 0.0000 0.0000
 57.0382 32.5402 -0.8419 67.6768 -74.9431 79.5909 -24.3579 6.5911 -11.8397 34.5793 -0.0000 0.0000 -20.6694 13.8563 -40.3136 -10.6669 -0.0000 -0.0000 -21.5126 -2.0315 -14.1001 76.9339 -0.0000 -0.0000 -9.0192 0.7579 0.0451 -2.5521 0.0000 0.0000 -3.3293 -1.8372 -13.3822 -5.0261 3.8207 -3.0354 11.0446 40.1788 -0.3189 5.3426 -41.9368 5.7195 -8.4259 -2.9629 -9.1960 37.4622 -6.3219 -55.8277 -0.0005 -68.1958 -0.0004 -15.7157 17.5806 -10.7916 0.0000 -0.0000 -0.0000 0.0000 -0.0000 -0.0000 -3.4264 -8.4402 2.6637 30.1039 21.6443 56.6155 -0.0012 80.0394 0.0010 -8.3706 18.9709 -19.6236 0.0000 0.0000 -0.0000 0.0000 0.0000 -0.0000
 56.4887 32.3493 -0.8176 67.2582 -74.9667 79.1657 -24.1956 6.2225 -11.8474 36.3323 0.0000 -0.0000 -22.2824 14.0354 -40.4846 -10.7638 -0.0000 -0.0000 -23.8524 -1.3260 -14.1406 79.9350 -0.0000 0.0000 -10.3390 0.3805 -1.0531 -2.5384 0.0000 -0.0000 -3.2542 -2.0965 -13.3665 -4.9682 3.6075 -3.1724 10.8005 40.1817 -0.1616 5.3349 -41.8945 5.8144 -8.8380 -3.0226 -9.5518 36.6937 -6.6183 -54.9889 -0.0005 -68.5376 -0.0004 -15.9046 17.4688 -10.8361 -0.0000 -0.0000 0.0000 -0.0000 -0.0000 0.0000 -3.7059 -8.9153 3.0217 30.8220 21.2845 56.2162 -0.0011 79.0610 0.0009 -8.0283 18.6263 -19.3091 -0.0000 -0.0000 0.0000 -0.0000 -0.0000 0.0000
 55.9315 32.1773 -0.8087 66.2986 -74.9392 78.2201 -23.8134 6.2584 -11.7447 37.8420 -0.0000 0.0000 -23.7157 13.6686 -40.4983 -10.8788 0.0000 -0.0000 -26.1882 -0.6652 -14.1076 82.4605 -0.0000 0.0000 -11.5130 0.0842 -1.9253 -2.4333 0.0000 -0.0000 -3.1447 -2.3951 -13.3491 -4.9203 3.3760 -3.3877 10.5075 40.1681 -0.0264 5.4297 -41.8924 6.0922 -9.0652 -3.1208 -9.9231 35.6564 -6.9929 -54.0017 -0.0005 -68.8517 -0.0004 -15.9659 17.2641 -10.7130 -0.0000 0.0000 0.0000 -0.0000 0.0000 0.0000 -3.9152 -9.5249 3.5336 31.5220 20.8200 55.7616 -0.0010 78.1393 0.0008 -7.6682 18.2016 -19.1212 0.0000 -0.0000 -0.0000 0.0000 -0.0000 -0.0000
 55.4000 32.0125 -0.7336 65.1702 -74.4570 78.0249 -23.5550 6.7020 -12.6120 38.9307 -0.0000 -0.0000 -24.8222 13.1783 -40.0873 -10.9400 0.0000 -0.0000 -29.1678 0.3212 -15.1988 84.8828 0.0000 0.0000 -12.7736 0.1004 -2.7511 -2.4614 -0.0000 -0.0000 -3.4879 -2.7751 -13.7000 -4.6732 3.2053 -4.3961 9.9967 40.3076 0.4294 5.0401 -42.0483 6.0548 -9.5056 -3.3657 -9.8699 34.5386 -7.4458 -53.1988 -0.0006 -69.1654 -0.0004 -15.6524 17.0998 -10.4663 -0.0000 0.0000 -0.0000 -0.0000 0.0000 -0.0000 -4.0175 -10.1222 4.1080 31.9077 20.3407 55.5448 -0.0009 77.1494 0.0007 -7.3568 18.0469 -18.8268 -0.0000 -0.0000 -0.0000 -0.0000 -0.0000 -0.0000
 54.8266 31.8670 -0.7404 63.3645 -74.3666 76.1977 -22.7420 6.8494 -12.3727 39.8134 -0.0000 -0.0000 -26.0333 12.3052 -40.2287 -11.1993 0.0000 0.0000 -31.4303 0.8257 -15.0841 86.4872 -0.0000 0.0000 -13.9607 -0.1137 -3.0850 -2.4645 -0.0000 0.0000 -3.3755 -3.1715 -13.7303 -4.5378 2.8609 -4.4210 9.4765 40.3895 0.3471 5.8757 -42.1170 6.8988 -9.6571 -3.5831 -10.0351 33.1682 -8.0256 -52.5474 -0.0006 -69.4231 -0.0004 -15.4907 16.7617 -9.9687 -0.0000 0.0000 -0.0000 -0.0000 0.0000 -0.0000 -4.0992 -10.5885 4.4109 32.4972 19.6526 55.3549 -0.0009 76.4057 0.0007 -7.5379 17.6466 -19.1929 0.0000 0.0000 -0.0000 0.0000 0.0000 -0.0000
 54.2426 31.7290 -0.7405 61.8866 -74.2841 74.6762 -21.7273 7.0105 -12.1041 40.3120 -0.0000 0.0000 -27.2448 11.5213 -40.4590 -10.7815 -0.0000 -0.0000 -33.6867 1.4043 -14.9332 87.6785 -0.0000 0.0000 -15.0645 -0.2534 -3.3406 -2.5932 0.0000 -0.0000 -3.3093 -3.4833 -13.7034 -4.3497 2.5842 -4.4695 9.3373 40.3865 0.3317 5.6752 -42.1711 6.9351 -9.7902 -3.9462 -10.1846 31.7772 -8.4871 -51.9993 -0.0006 -69.9315 -0.0004 -15.5297 16.6719 -9.5736 0.0000 -0.0000 0.0000 0.0000 -0.0000 0.0000 -3.8922 -10.9359 4.5981 32.8420 18.9180 55.3338 -0.0008 75.7066 0.0006 -7.5664 17.2582 -19.6971 -0.0000 0.0000 -0.0000 -0.0000 0.0000 -0.0000
 53.6477 31.5968 -0.7324 60.4472 -74.1817 73.1962 -20.5724 7.0689 -11.8606 40.4840 -0.0000 0.0000 -28.3344 10.7409 -40.8109 -10.9274 -0.0000 0.0000 -35.9466 1.9123 -14.8308 88.4481 -0.0000 0.0000 -16.1491 -0.3358 -3.2957 -2.5186 0.0000 0.0000 -3.3040 -3.8031 -13.6535 -4.1026 2.2796 -4.5170 9.0885 40.3945 0.4080 5.5713 -42.1808 6.8688 -10.0267 -4.3193 -10.1834 30.3408 -8.8353 -51.6345 -0.0006 -70.5786 -0.0004 -15.0915 16.8341 -9.7215 -0.0000 -0.0000 -0.0000 -0.0000 -0.0000 -0.0000 -3.6756 -11.1316 4.6342 33.2328 18.2137 55.3961 -0.0008 75.1141 0.0006 -8.2473 17.0555 -20.2532 0.0000 -0.0000 0.0000 0.0000 -0.0000 0.0000
 53.0484 31.4699 -0.7160 59.3662 -74.0937 72.0744 -19.3733 7.1492 -11.6232 40.5426 -0.0000 0.0000 -29.3395 10.0720 -41.1463 -10.9870 -0.0000 -0.0000 -38.2228 2.4510 -14.7007 88.8608 -0.0000 0.0000 -17.0332 -0.3762 -3.8226 -2.5921 -0.0000 -0.0000 -3.2997 -4.1037 -13.5982 -3.9226 1.9903 -4.5157 8.9035 40.4281 0.5409 5.3593 -42.1418 6.5577 -10.2410 -4.7378 -10.0495 28.8822 -9.0505 -51.5524 -0.0006 -71.4542 -0.0005 -14.7503 17.0208 -9.8515 0.0000 0.0000 -0.0000 0.0000 0.0000 -0.0000 -3.4046 -11.3061 4.5097 33.7376 17.7318 55.3321 -0.0008 74.7339 0.0006 -9.5280 16.8509 -20.8079 0.0000 -0.0000 -0.0000 0.0000 -0.0000 -0.0000
 52.4454 31.3577 -0.6945 58.5251 -74.0148 71.1841 -18.0832 7.1605 -11.4115 40.3584 -0.0000 0.0000 -30.2465 9.5242 -41.3464 -11.0806 0.0000 -0.0000 -40.4732 2.9963 -14.5468 88.9072 -0.0000 0.0000 -18.0503 -0.4453 -3.9131 -2.6516 -0.0000 -0.0000 -3.2701 -4.3779 -13.5269 -3.7917 1.7327 -4.4670 8.6332 40.4768 0.6927 5.3311 -42.0881 6.2702 -10.3816 -5.1911 -9.8811 27.3662 -9.1979 -51.5903 -0.0007 -72.4493 -0.0005 -14.6615 17.0558 -10.0952 -0.0000 0.0000 0.0000 -0.0000 0.0000 0.0000 -3.2210 -11.3859 4.2643 34.4151 17.2493 55.2971 -0.0008 74.5778 0.0006 -10.6166 16.6800 -21.3550 -0.0000 0.0000 -0.0000 -0.0000 0.0000 -0.0000
 51.8334 31.2625 -0.6676 57.8188 -73.9372 70.4085 -16.6871 7.1177 -11.2035 39.9129 -0.0000 0.0000 -30.9829 9.0570 -41.6153 -11.2219 0.0000 0.0000 -42.6205 3.4900 -14.3837 88.4714 -0.0000 0.0000 -18.9932 -0.4802 -3.9412 -2.7331 0.0000 -0.0000 -3.2324 -4.6430 -13.4350 -3.6802 1.4848 -4.3700 8.2825 40.5533 0.8362 5.4748 -42.0201 6.0562 -10.4656 -5.5992 -9.6738 25.7898 -9.3483 -51.6940 -0.0007 -73.5897 -0.0005 -14.6976 17.2352 -10.5638 -0.0000 0.0000 0.0000 -0.0000 0.0000 0.0000 -3.1793 -11.4539 3.9143 35.2986 16.7885 55.1932 -0.0008 74.6864 0.0006 -11.3604 16.5236 -21.4537 -0.0000 0.0000 -0.0000 -0.0000 0.0000 -0.0000
 51.2069 31.1932 -0.7233 57.9542 -73.7612 69.4156 -15.5846 7.1836 -9.7242 39.5150 -0.0000 0.0000 -31.7782 8.4031 -42.0907 -11.2256 0.0000 -0.0000 -44.6890 3.3775 -13.0031 87.2476 0.0000 -0.0000 -19.7258 -0.9346 -3.8393 -2.7078 0.0000 -0.0000 -3.3311 -5.0556 -12.8262 -3.6185 1.2622 -3.5719 8.2241 41.4024 0.6164 5.6137 -42.5288 6.0259 -10.6401 -5.7334 -9.6069 24.3803 -9.4772 -51.8028 -0.0008 -74.8171 -0.0006 -15.1094 17.2887 -10.7210 -0.0000 0.0000 -0.0000 -0.0000 0.0000 -0.0000 -3.0608 -11.3633 3.4881 36.1382 16.4248 54.9180 -0.0008 74.9581 0.0006 -11.4587 16.5129 -21.2250 -0.0000 0.0000 0.0000 -0.0000 0.0000 0.0000
 50.5712 31.1378 -0.6922 57.5289 -73.6993 68.9597 -13.9355 7.0090 -9.6420 38.4836 -0.0000 0.0000 -32.1833 8.2551 -42.1857 -11.2606 -0.0000 0.0000 -46.5612 3.7787 -12.8861 85.9574 0.0000 -0.0000 -20.5589 -1.0275 -3.6073 -2.7789 0.0000 -0.0000 -3.2480 -5.3195 -12.7153 -3.7300 1.0228 -3.5101 8.1409 41.5563 0.6248 5.8507 -42.4341 6.0750 -10.7542 -6.1145 -9.4014 23.0591 -9.4128 -51.9480 -0.0009 -76.1785 -0.0007 -15.2647 17.4577 -11.1248 -0.0000 0.0000 -0.0000 -0.0000 0.0000 -0.0000 -2.8184 -11.5444 3.1161 37.0062 16.3216 54.5685 -0.0008 75.3165 0.0006 -11.4882 16.7443 -21.0743 0.0000 0.0000 -0.0000 0.0000 0.0000 -0.0000
